# xmcd
#
# Track frame offsets:
#	150
#	14727
#	28974
#	41785
#	55187
#	69830
#	85701
#	101270
#	116602
#	132901
#	147157
#	163335
#	177481
#	190885
#	208190
#	222748
#	240903
#	257640
#
# Disc length: 3658 seconds
#
# Revision: 0
# Processed by: cddbd v1.5.2PL0 Copyright (c) Steve Scherf et al.
# Submitted via: audiograbber 1.83.01
#
DISCID=0c0e4812
DTITLE=Truck Stop - 30 Jahre
DYEAR=1900
DGENRE=Country
TTITLE0=Lucius - Von Arizona bis old Texas Town
TTITLE1=Gunter Gabriel and Cisco - Die Frau mit dem Gurt
TTITLE2=Lucius - 300 Jahre
TTITLE3=Stefan Rab and Cisco - Der wilde, wilde Westen
TTITLE4=Lucius - Mississippi Lady
TTITLE5=Cisco - Wir sind die Country-Superstars
TTITLE6=The Bellamy Brothers and Lucius - Hello, Lady Harley
TTITLE7=Cisco - Das Leben ist viel zu kurz
TTITLE8=Tom Astor and Cisco - Ich möcht so gern Dave Dudley hör`n
TTITLE9=Cisco - Das gibt es nur in Mashville!
TTITLE10=Linda Feller and Lucius - Hey, kleiner Cowboy
TTITLE11=Cisco - Keep on Truckin`
TTITLE12=Markus (Klostertaler) and Lucius - Take It Easy, Altes Haus
TTITLE13=Cisco - Wie schön das du das bist
TTITLE14=Höhner and Lucius - Angeln entspannt
TTITLE15=Cisco and Lucius - Ein Herz und eine Seele
TTITLE16=Lucius - Jenny
TTITLE17=Peter (Schürzenjäger) and Lucius - Freunde bleiben
EXTD=
EXTT0=
EXTT1=
EXTT2=
EXTT3=
EXTT4=
EXTT5=
EXTT6=
EXTT7=
EXTT8=
EXTT9=
EXTT10=
EXTT11=
EXTT12=
EXTT13=
EXTT14=
EXTT15=
EXTT16=
EXTT17=
PLAYORDER=
